Coordinates
version=1
nRows=13
nColumns=32
inDegrees=yes

Units are S.I. units (second, meters, Newtons, ...)
Angles are in degrees.
endheader
time	lower_torso_RX	lower_torso_RY	lower_torso_RZ	lower_torso_TX	lower_torso_TY	lower_torso_TZ	lumbar_pitch	lumbar_roll	lumbar_yaw	hip_flex_r	hip_add_r	hip_rot_r	knee_flex_r	tib_pat_r_r3	tib_pat_r_tx	tib_pat_r_ty	tib_pat_r_tz	ankle_flex_r	subt_angle_r	toe_angle_r	hip_flex_l	hip_add_l	hip_rot_l	knee_flex_l	tib_pat_l_r3	tib_pat_l_tx	tib_pat_l_ty	tib_pat_l_tz	ankle_flex_l	subt_angle_l	toe_angle_l
4.00999999999999980000	3.94869497000000000000	0.93348536000000004000	-18.43600019000000100000	0.07467824000000000700	0.68220694000000004000	-0.28635428000000002000	12.50277943999999900000	-5.63621403999999960000	6.78404433000000040000	40.16612242000000100000	-7.16127444999999960000	1.14203028999999990000	71.93317387999999800000	15.69331910346478100000	0.03186160690206471500	-0.01836945134564995500	0.00219691669626343640	-9.56807506000000000000	21.03984638000000000000	0.00000000000000000000	26.06271126000000000000	6.44946470000000010000	14.55157061000000100000	24.41780088999999900000	7.28747579352682260000	0.04132418818337959400	-0.01945454122250368100	-0.00214957326773124700	8.04423238999999950000	-2.56410710000000020000	0.00000000000000000000
4.01999999999999960000	3.81990710000000000000	0.85741128000000000000	-18.20251465000000100000	0.08070932000000000100	0.68281519999999996000	-0.28640248000000001000	12.30162464000000000000	-5.46986174999999970000	6.70707271000000030000	41.82193524000000200000	-7.03829859000000010000	1.73304304000000010000	72.86270845000000000000	15.78131944634075600000	0.03161521326187336600	-0.01835420814857990200	0.00219691669626343640	-8.95845457999999970000	21.03809018999999800000	0.00000000000000000000	25.22696876999999900000	6.26012989000000000000	14.41836677000000000000	24.38698559999999900000	7.27878296471243310000	0.04132913115246165300	-0.01945566363058732700	-0.00214957326773124700	8.29137715000000060000	-2.22740384000000000000	0.00000000000000000000
4.03000000000000020000	3.71938194999999980000	0.92822159000000004000	-17.91058160000000000000	0.08685832999999999700	0.68344265000000004000	-0.28659255000000000000	12.03791496999999900000	-5.28467115000000030000	6.49117387999999980000	43.35933904000000200000	-7.00420163999999980000	2.18954728000000020000	73.67928851000000600000	15.85669237707468500000	0.03139722331781540100	-0.01834232996186207000	0.00219691669626343640	-8.33217424000000050000	20.59317437000000000000	0.00000000000000000000	24.32344698000000000000	6.11245747999999980000	14.35462963000000000000	24.35848945000000000000	7.27073961304411310000	0.04133369983183510200	-0.01945670154334579200	-0.00214957326773124700	8.55128662999999990000	-1.87538519000000000000	0.00000000000000000000
4.04000000000000000000	3.64917993999999980000	1.15342590000000000000	-17.58187111000000200000	0.09314163000000000300	0.68402660000000004000	-0.28689912000000001000	11.72015184000000000000	-5.08838612000000000000	6.13069574000000020000	44.78230840999999900000	-7.07110614000000040000	2.50643064000000000000	74.36091204999999600000	15.91823465747260100000	0.03121413968725749600	-0.01833356228927274200	0.00219691669626343640	-7.70873351000000010000	19.71024705000000000000	0.00000000000000000000	23.36638071999999900000	5.99713104000000020000	14.37627412000000000000	24.31567804000000200000	7.25864705662752390000	0.04134055949403076700	-0.01945826081576735100	-0.00214957326773124700	8.81389856999999920000	-1.49760646000000010000	0.00000000000000000000
4.04999999999999980000	3.60526324000000020000	1.53141968999999990000	-17.23727174000000100000	0.09948023000000000300	0.68456249000000002000	-0.28730524000000002000	11.36022172999999900000	-4.88789265000000040000	5.62993428999999960000	46.09717762999999700000	-7.23853175999999990000	2.69061089999999980000	74.87849328000000100000	15.96413668480997600000	0.03107442636268197300	-0.01832763435390156000	0.00219691669626343640	-7.11490602000000030000	18.42273005999999900000	0.00000000000000000000	22.37238260000000200000	5.89828829000000000000	14.49272414000000000000	24.24326019000000100000	7.23816840571627470000	0.04135215169891898200	-0.01946089828631474000	-0.00214957326773124700	9.06953840999999980000	-1.08444685000000000000	0.00000000000000000000
4.05999999999999960000	3.58008541000000010000	2.05317029000000020000	-16.89226323000000100000	0.10584543000000000000	0.68508877999999995000	-0.28780422999999999000	10.97174532000000000000	-4.68812199000000000000	5.00254795000000030000	47.30738715999999800000	-7.49761671999999990000	2.75483849000000000000	75.19768729999999800000	15.99208962817133700000	0.03098796395079436400	-0.01832430303644071200	0.00219691669626343640	-6.57814323000000020000	16.78462743000000000000	0.00000000000000000000	21.35567337000000200000	5.79855777000000040000	14.70449470000000000000	24.13053451000000000000	7.20623266711734890000	0.04137016787454863400	-0.01946500344553194300	-0.00214957326773124700	9.31032906999999990000	-0.63025595999999995000	0.00000000000000000000
4.07000000000000030000	3.56625534000000010000	2.70244632000000000000	-16.55469321000000000000	0.11224234000000000000	0.68563014000000000000	-0.28838254000000002000	10.56863673000000000000	-4.49162525000000020000	4.27021133000000040000	48.41097492000000100000	-7.83663083999999980000	2.71472474999999980000	75.28377233999999900000	15.99958217587033700000	0.03096460592512087800	-0.01832344780935013500	0.00219691669626343640	-6.12051157999999960000	14.86335306000000000000	0.00000000000000000000	20.32528435000000000000	5.68261315999999980000	15.00263832000000100000	23.97274857000000000000	7.16141099143021800000	0.04139532786287647400	-0.01947074884503221000	-0.00214957326773124700	9.53085796999999960000	-0.13555276999999999000	0.00000000000000000000
4.08000000000000010000	3.55857932000000020000	3.45591160999999980000	-16.22523984000000000000	0.11866264999999999000	0.68617773000000004000	-0.28899868000000001000	10.16408451000000000000	-4.29879191000000030000	3.46066022999999980000	49.40161492000000000000	-8.24473753000000010000	2.58864641999999990000	75.10693870000000100000	15.98416993641067800000	0.03101256915341761600	-0.01832522456533364600	0.00219691669626343640	-5.75472363999999990000	12.73560241999999900000	0.00000000000000000000	19.28479765000000200000	5.53897054000000020000	15.37037821999999900000	23.77026632999999800000	7.10368682759968630000	0.04142751591955589500	-0.01947812037183274700	-0.00214957326773124700	9.72779777999999950000	0.39246992000000003000	0.00000000000000000000
4.08999999999999990000	3.55455316000000020000	4.28414027999999990000	-15.90072769000000000000	0.12511506000000000000	0.68671707999999998000	-0.28961355000000000000	9.76998361000000060000	-4.10856036000000020000	2.60533257999999980000	50.27180194000000300000	-8.71063258000000040000	2.39798863000000000000	74.64547310000000400000	15.94355943449123300000	0.03113740105189932400	-0.01833022356385270000	0.00219691669626343640	-5.48346610000000020000	10.48682848000000000000	0.00000000000000000000	18.23349663000000100000	5.36164763000000020000	15.78576756000000000000	23.52554681000000200000	7.03361199880832460000	0.04146626942882672400	-0.01948702725032639900	-0.00214957326773124700	9.89882236999999950000	0.94109785000000001000	0.00000000000000000000
4.09999999999999960000	3.55325250000000010000	5.15338149000000010000	-15.58001129000000000000	0.13161111000000000000	0.68724931000000000000	-0.29021169000000002000	9.39670648999999970000	-3.91939390000000020000	1.73683787000000000000	51.01455064999999700000	-9.21794543000000030000	2.16791397999999980000	73.88650873999999600000	15.87553361481330000000	0.03134167281778202400	-0.01833955145255569300	0.00219691669626343640	-5.30226491999999980000	8.21283743000000040000	0.00000000000000000000	17.16853721000000000000	5.15100972000000020000	16.22437993000000100000	23.23872451000000100000	6.95104848687279730000	0.04151148235373034600	-0.01949746283349117200	-0.00214957326773124700	10.04161290000000100000	1.49415583999999990000	0.00000000000000000000
4.11000000000000030000	3.55379428999999990000	6.02795535000000000000	-15.26779913999999900000	0.13814562000000000000	0.68777398999999995000	-0.29077923999999999000	9.05302971000000060000	-3.73027336999999990000	0.88648950999999998000	51.62411433999999800000	-9.74207091999999970000	1.92969149999999990000	72.82348518000000600000	15.77765362349239300000	0.03162564766801392200	-0.01835481508395894100	0.00219691669626343640	-5.20463071000000000000	6.02040135000000020000	0.00000000000000000000	16.08760433999999900000	4.91131298999999990000	16.66195259999999900000	22.90437456000000100000	6.85421217357192080000	0.04156390316604940300	-0.01950962192674397500	-0.00214957326773124700	10.15348434999999900000	2.03412202999999980000	0.00000000000000000000
4.12000000000000010000	3.55510883000000000000	6.87364887000000020000	-14.97207086000000100000	0.14474989999999999000	0.68826301999999995000	-0.29129269000000002000	8.74604227000000020000	-3.54148161999999990000	0.08211153999999999700	52.09883474000000100000	-10.25013749999999900000	1.72258702999999990000	71.44993666000000600000	15.64663746710415800000	0.03198897567222824100	-0.01837806084049184800	0.00219691669626343640	-5.18723083999999980000	4.02354596999999980000	0.00000000000000000000	14.99021645999999900000	4.64622139999999990000	17.07678477000000000000	22.51197132000000100000	6.73974601241121360000	0.04162503442358646300	-0.01952388324735463200	-0.00214957326773124700	10.23163893000000100000	2.54395776000000010000	0.00000000000000000000
4.12999999999999990000	3.55597434000000010000	7.66156700999999970000	-14.70009939000000000000	0.15147889000000000000	0.68866888999999998000	-0.29171248000000000000	8.48093837000000050000	-3.35502123000000020000	-0.65371327000000001000	52.44195985000000300000	-10.70419203000000000000	1.59326419999999990000	69.75402219999999400000	15.47770646927864000000	0.03243214799289419900	-0.01841168740545860400	0.00219691669626343640	-5.25290455000000020000	2.33398505999999980000	0.00000000000000000000	13.87720998000000000000	4.35643751000000010000	17.45155119000000000000	22.04992641000000100000	6.60382920536870270000	0.04169647095655251700	-0.01954066136983338000	-0.00214957326773124700	10.27388093000000100000	3.00877879000000000000	0.00000000000000000000
